<svg width="464" height="464" viewBox="0 0 464 464" fill="none" xmlns="http://www.w3.org/2000/svg">
<path d="M337.5 290.898C335.327 289.015 334.258 287.978 331.329 288.105C328.935 288.563 328.935 288.563 326.306 288.566L326.306 288.565C318.949 285.195 318.949 285.195 313.362 278.965C312.308 277.86 311.244 276.763 310.172 275.675C307.331 272.813 304.508 269.936 301.709 267.033C298.834 264.051 295.937 261.093 293.028 258.144C288.683 253.737 284.346 249.322 280.04 244.877L278.608 243.396C276.331 241.043 274.081 238.685 271.934 236.212L270.337 234.34C269.389 233.231 268.442 232.121 267.496 231.011C244.774 208.267 186.05 150.526 163.323 127.788L155.09 119.551L153.432 117.892C144.575 109.031 135.719 100.168 126.864 91.3035C117.742 82.1725 108.619 73.0429 99.4941 63.9155C93.8712 58.2913 88.2489 52.6665 82.6295 47.0389C78.7427 43.1464 74.8545 39.2554 70.9648 35.3659C69.1503 33.552 67.336 31.7379 65.522 29.9236C55.2456 19.6248 42.84 1.77546 27.4961 0.01125C20.3354 -0.105978 14.042 0.618558 8.6875 5.74172C2.32384 12.5817 0.189779 18.4669 0 27.7534C1.14587 35.2783 4.67056 40.7526 9.9498 46.1011L12.1388 48.2418C14.6084 50.7205 17.0812 53.1949 19.5699 55.6542C21.3917 57.4536 23.2089 59.2576 25.0218 61.0659C29.4417 65.4849 33.8663 69.899 38.304 74.3C44.0917 80.038 49.8689 85.7863 55.6383 91.5426C64.9954 100.88 74.3605 110.209 83.7352 119.528C92.8627 128.601 101.989 137.675 111.109 146.756L112.815 148.454C118.975 154.587 125.134 160.721 131.291 166.857L132.93 168.491L139.423 174.963C145.746 181.267 152.07 187.569 158.405 193.861C162.411 197.841 166.415 201.822 170.415 205.806C172.271 207.655 174.127 209.503 175.983 211.35L176.106 211.473C178.664 214.008 181.221 216.543 183.772 219.086L186.107 221.416L188.31 223.59L190.309 225.593C192.84 228.107 230.821 264.66 232.496 268.011C237.145 272.555 241.784 277.11 246.408 281.679C248.291 283.541 250.174 285.402 252.059 287.261C254.857 289.996 257.654 292.731 260.435 295.483L263.062 298.089L265.663 300.612L268.03 302.977L270.136 305.05C271.746 306.901 271.746 306.901 271.221 309.068C270.496 311.011 270.496 311.011 270.364 314.131C271.071 318.259 271.071 318.259 277.883 325.36C279.261 326.743 280.638 328.127 282.006 329.519C283.938 331.49 285.875 333.455 287.828 335.406C290.357 337.925 292.871 340.455 295.35 343.024C297.288 345.035 299.241 347.031 301.213 349.009C302.161 349.955 303.107 350.902 304.051 351.851L306.719 354.635L309.316 357.175L311.548 359.426C314.496 361.011 314.496 361.011 316.923 360.943C318.819 360.786 320.72 360.681 322.621 360.621C328.399 362.513 328.399 362.513 332.805 366.962L335.339 369.621C338.246 372.528 341.148 375.437 344.008 378.391C346.574 381.041 349.164 383.667 351.764 386.285C356.69 391.24 361.592 396.218 366.475 401.215C372.599 407.483 378.75 413.724 384.91 419.957L388.12 423.205C389.227 424.325 390.334 425.444 391.441 426.564L393.044 428.187C396.165 431.345 399.284 434.507 402.393 437.678C403.878 439.194 405.364 440.71 406.851 442.225C408.194 443.593 409.536 444.962 410.879 446.33L411.042 446.496C416.889 452.488 423.741 462.398 432.371 463.511C436.918 462.784 436.918 462.784 446.51 453.378C447.691 452.213 448.874 451.049 450.059 449.886L450.067 449.879C451.831 448.183 453.594 446.489 455.337 444.773L457 443.128C460.203 440.092 462.294 437.769 463.465 433.379C463.502 429.344 462.671 427.384 460.069 424.343L458.384 422.672L456.446 420.735L454.324 418.644C452.794 417.12 451.264 415.597 449.733 414.073C447.226 411.591 444.719 409.11 442.218 406.622C435.984 400.411 429.742 394.21 423.496 388.011C418.106 382.662 412.716 377.311 407.335 371.952C404.8 369.427 402.264 366.904 399.721 364.387C398.114 362.796 396.508 361.202 394.905 359.607L392.668 357.378L390.546 355.288L388.608 353.351C386.298 351.059 384.833 348.985 383.496 346.011L384.957 344.621L386.871 342.761C389.582 340.151 390.749 338.505 392.496 335.011L381.496 324.011C378.511 326.399 375.573 328.769 372.684 331.261L369.496 334.011L360.496 325.011C361.496 322.011 361.496 322.011 361.621 318.949C361.476 315.546 361.056 314.613 358.765 312.151L356.523 309.906L354.045 307.423L351.434 304.824C349.758 303.14 348.079 301.459 346.398 299.781C344.763 298.193 343.128 296.603 341.496 295.011C340.183 293.622 338.853 292.249 337.5 290.898Z" fill="#010000"/>
<path d="M24.3086 16.2617C33.1568 18.3437 40.4491 28.8262 46.7463 35.1417C47.8709 36.2658 48.9956 37.3896 50.1205 38.5133C53.1945 41.5851 56.2654 44.6599 59.3358 47.7353C62.6535 51.0574 65.9742 54.3766 69.2945 57.6962C75.0413 63.4425 80.7863 69.1906 86.53 74.9399C94.8344 83.2524 103.142 91.5622 111.449 99.8713C124.929 113.353 138.407 126.838 151.883 140.323C164.972 153.421 178.061 166.517 191.152 179.613C191.959 180.42 192.767 181.228 193.598 182.06C197.649 186.112 201.699 190.164 205.75 194.215C239.335 227.811 272.917 261.41 306.496 295.012C304.026 297.481 301.921 298.082 298.621 299.199C297.572 299.564 296.523 299.929 295.441 300.305C292.342 301.049 291.394 301.131 288.496 300.012C286.263 298.158 286.263 298.158 283.774 295.676C283.313 295.219 282.851 294.763 282.375 294.292C280.821 292.752 279.277 291.201 277.734 289.65C276.614 288.536 275.493 287.422 274.372 286.309C271.286 283.242 268.21 280.165 265.135 277.087C261.82 273.771 258.497 270.464 255.174 267.156C248.664 260.671 242.162 254.177 235.663 247.68C230.382 242.401 225.099 237.124 219.814 231.848C204.84 216.9 189.871 201.945 174.911 186.983C174.104 186.176 173.297 185.369 172.466 184.537C171.658 183.729 170.85 182.921 170.017 182.088C156.92 168.989 143.807 155.906 130.687 142.828C117.225 129.409 103.775 115.979 90.3354 102.538C82.7866 94.9877 75.2331 87.4426 67.6677 79.9094C61.2269 73.4958 54.7965 67.0721 48.3795 60.6347C45.1039 57.3493 41.8237 54.0689 38.5302 50.8014C35.5165 47.8113 32.517 44.8076 29.5282 41.7926C28.4434 40.7031 27.3535 39.6188 26.258 38.54C24.7712 37.0743 23.304 35.5913 21.8403 34.1026C21.0196 33.2825 20.1989 32.4625 19.3533 31.6176C17.0269 28.3534 16.6139 25.992 16.4961 22.0117C18.8237 18.6967 20.3856 17.3078 24.3086 16.2617Z" fill="#EC5648"/>
<path d="M391.496 382.012C395.155 383.551 397.479 385.753 400.265 388.553C400.724 389.012 401.183 389.471 401.656 389.943C403.164 391.454 404.666 392.971 406.168 394.488C407.216 395.54 408.264 396.59 409.312 397.641C412.065 400.402 414.812 403.168 417.558 405.936C420.363 408.762 423.174 411.582 425.984 414.402C431.494 419.933 436.997 425.47 442.496 431.012C440.891 434.422 439.091 436.63 436.371 439.262C435.647 439.968 434.922 440.675 434.176 441.402C433.621 441.933 433.067 442.465 432.496 443.012C426.372 437.947 420.789 432.433 415.188 426.801C414.211 425.823 413.235 424.845 412.258 423.867C409.709 421.315 407.164 418.759 404.619 416.203C402.013 413.587 399.404 410.973 396.795 408.359C391.693 403.246 386.593 398.13 381.496 393.012C382.446 391.895 383.396 390.779 384.348 389.664C385.142 388.732 385.142 388.732 385.952 387.781C387.713 385.764 389.566 383.868 391.496 382.012Z" fill="#4D4D4E"/>
<path d="M329.496 306.012C331.165 307.114 331.165 307.114 332.609 308.637C333.135 309.178 333.66 309.72 334.201 310.278C334.732 310.85 335.262 311.422 335.809 312.012C336.358 312.584 336.908 313.157 337.475 313.746C338.827 315.157 340.163 316.583 341.496 318.012C339.073 323.647 334.378 327.539 330.121 331.824C329.257 332.721 328.394 333.618 327.504 334.541C326.669 335.384 325.833 336.226 324.973 337.094C323.829 338.258 323.829 338.258 322.663 339.445C320.496 341.012 320.496 341.012 318.542 341.059C315.602 339.554 313.623 337.51 311.293 335.172C310.81 334.69 310.328 334.208 309.83 333.711C308.815 332.693 307.803 331.672 306.795 330.647C305.246 329.075 303.685 327.516 302.121 325.959C294.496 318.291 294.496 318.291 294.496 316.012C298.674 314.578 302.855 313.154 307.039 311.74C308.461 311.257 309.882 310.772 311.302 310.284C313.347 309.582 315.396 308.89 317.445 308.199C318.676 307.781 319.907 307.362 321.175 306.93C324.212 306.091 326.387 305.597 329.496 306.012Z" fill="#4B4B4C"/>
<path d="M368.496 359.012C371.948 360.489 374.146 362.45 376.746 365.137C377.452 365.861 378.159 366.586 378.887 367.332C379.683 368.163 379.683 368.163 380.496 369.012C379.019 372.464 377.058 374.661 374.371 377.262C373.647 377.968 372.922 378.675 372.176 379.402C371.621 379.933 371.067 380.465 370.496 381.012C370.049 380.625 369.601 380.238 369.141 379.84C365.644 376.828 362.122 373.869 358.496 371.012C359.973 367.56 361.934 365.362 364.621 362.762C365.346 362.055 366.07 361.349 366.816 360.621C367.371 360.09 367.925 359.559 368.496 359.012Z" fill="#7C7C7C"/>
<path d="M346.496 336.012C351.022 339.69 354.89 343.423 358.496 348.012C355.196 351.312 351.896 354.612 348.496 358.012C344.828 356.178 343.028 354.761 340.246 351.887C339.54 351.162 338.833 350.438 338.105 349.691C337.574 349.137 337.043 348.583 336.496 348.012C337.973 344.56 339.934 342.362 342.621 339.762C343.346 339.055 344.07 338.349 344.816 337.621C345.371 337.09 345.925 336.559 346.496 336.012Z" fill="#7D7D7D"/>
<path d="M125.966 290.898C128.139 289.015 129.208 287.978 132.137 288.105C134.53 288.563 134.53 288.563 137.16 288.566L137.16 288.565C144.517 285.195 144.517 285.195 150.103 278.965C151.158 277.86 152.222 276.763 153.294 275.675C156.135 272.813 158.958 269.936 161.757 267.033C164.632 264.051 167.529 261.093 170.438 258.144C174.783 253.737 179.12 249.322 183.426 244.877L184.857 243.396C187.135 241.043 189.385 238.685 191.531 236.212L193.129 234.34C194.077 233.231 195.024 232.121 195.97 231.011C218.691 208.267 277.415 150.526 300.143 127.788L308.376 119.551L310.034 117.892C318.891 109.031 327.747 100.168 336.602 91.3035C345.724 82.1725 354.847 73.0429 363.972 63.9155C369.595 58.2913 375.217 52.6665 380.836 47.0389C384.723 43.1464 388.611 39.2554 392.501 35.3659C394.316 33.552 396.13 31.7379 397.944 29.9236C408.22 19.6248 420.626 1.77546 435.97 0.01125C443.13 -0.105978 449.424 0.618558 454.778 5.74172C461.142 12.5817 463.276 18.4669 463.466 27.7534C462.32 35.2783 458.795 40.7526 453.516 46.1011L451.327 48.2418C448.857 50.7205 446.385 53.1949 443.896 55.6542C442.074 57.4536 440.257 59.2576 438.444 61.0659C434.024 65.4849 429.6 69.899 425.162 74.3C419.374 80.038 413.597 85.7863 407.827 91.5426C398.47 100.88 389.105 110.209 379.731 119.528C370.603 128.601 361.477 137.675 352.357 146.756L350.65 148.454C344.491 154.587 338.332 160.721 332.175 166.857L330.536 168.491L324.043 174.963C317.72 181.267 311.395 187.569 305.061 193.861C301.055 197.841 297.051 201.822 293.05 205.806C291.195 207.655 289.339 209.503 287.483 211.35L287.36 211.473C284.802 214.008 282.245 216.543 279.694 219.086L277.358 221.416L275.156 223.59L273.156 225.593C270.626 228.107 232.645 264.66 230.97 268.011C226.321 272.555 221.682 277.11 217.058 281.679C215.175 283.541 213.292 285.402 211.407 287.261C208.609 289.996 205.811 292.731 203.031 295.483L200.403 298.089L197.803 300.612L195.436 302.977L193.33 305.05C191.72 306.901 191.72 306.901 192.245 309.068C192.97 311.011 192.97 311.011 193.102 314.131C192.395 318.259 192.395 318.259 185.583 325.36C184.205 326.743 182.827 328.127 181.459 329.519C179.527 331.49 177.591 333.455 175.638 335.406C173.109 337.925 170.595 340.455 168.116 343.024C166.177 345.035 164.225 347.031 162.253 349.009C161.305 349.955 160.359 350.902 159.415 351.851L156.746 354.635L154.15 357.175L151.918 359.426C148.97 361.011 148.97 361.011 146.543 360.943C144.647 360.786 142.746 360.681 140.845 360.621C135.067 362.513 135.067 362.513 130.661 366.962L128.127 369.621C125.22 372.528 122.318 375.437 119.458 378.391C116.891 381.041 114.302 383.667 111.702 386.285C106.776 391.24 101.874 396.218 96.991 401.215C90.8668 407.483 84.7162 413.724 78.556 419.957L75.3453 423.205C74.2384 424.325 73.1315 425.444 72.0247 426.564L70.4219 428.187C67.3007 431.345 64.182 434.507 61.073 437.678C59.5874 439.194 58.1019 440.71 56.6152 442.225C55.2722 443.593 53.9294 444.962 52.5867 446.33L52.4241 446.496C46.5768 452.488 39.725 462.398 31.0947 463.511C26.5479 462.784 26.5479 462.784 16.9561 453.378C15.7744 452.213 14.5915 451.049 13.4072 449.886L13.3993 449.879C11.6352 448.183 9.87192 446.489 8.12866 444.773L6.46582 443.128C3.263 440.092 1.17178 437.769 0.0012207 433.379C-0.036499 429.344 0.795227 427.384 3.39716 424.343L5.08203 422.672L7.01941 420.735L9.1416 418.644C10.6716 417.12 12.2018 415.597 13.7324 414.073C16.2396 411.591 18.7465 409.11 21.2474 406.622C27.4815 400.411 33.724 394.21 39.9697 388.011C45.3601 382.662 50.7494 377.311 56.1309 371.952C58.6656 369.427 61.2019 366.904 63.7445 364.387C65.3519 362.796 66.9573 361.202 68.5604 359.607L70.7979 357.378L72.92 355.288L74.8574 353.351C77.1677 351.059 78.6326 348.985 79.9697 346.011L78.5088 344.621L76.5947 342.761C73.8838 340.151 72.7165 338.505 70.9697 335.011L81.9697 324.011C84.9547 326.399 87.8933 328.769 90.7822 331.261L93.9697 334.011L102.97 325.011C101.97 322.011 101.97 322.011 101.845 318.949C101.99 315.546 102.409 314.613 104.7 312.151L106.942 309.906L109.421 307.423L112.032 304.824C113.708 303.14 115.386 301.459 117.067 299.781C118.703 298.193 120.337 296.603 121.97 295.011C123.283 293.622 124.613 292.249 125.966 290.898Z" fill="#010000"/>
<path d="M439.157 16.2617C430.309 18.3437 423.017 28.8262 416.719 35.1417C415.595 36.2658 414.47 37.3896 413.345 38.5133C410.271 41.5851 407.2 44.6599 404.13 47.7353C400.812 51.0574 397.492 54.3766 394.171 57.6962C388.424 63.4425 382.68 69.1906 376.936 74.9399C368.631 83.2524 360.324 91.5622 352.016 99.8713C338.536 113.353 325.059 126.838 311.583 140.323C298.494 153.421 285.405 166.517 272.314 179.613C271.507 180.42 270.699 181.228 269.867 182.06C265.817 186.112 261.766 190.164 257.716 194.215C224.131 227.811 190.549 261.41 156.97 295.012C159.439 297.481 161.545 298.082 164.845 299.199C165.894 299.564 166.943 299.929 168.024 300.305C171.124 301.049 172.072 301.131 174.97 300.012C177.203 298.158 177.203 298.158 179.691 295.676C180.153 295.219 180.615 294.763 181.091 294.292C182.645 292.752 184.189 291.201 185.732 289.65C186.852 288.536 187.973 287.422 189.094 286.309C192.18 283.242 195.256 280.165 198.33 277.087C201.646 273.771 204.969 270.464 208.292 267.156C214.802 260.671 221.304 254.177 227.802 247.68C233.083 242.401 238.367 237.124 243.652 231.848C258.626 216.9 273.595 201.945 288.555 186.983C289.362 186.176 290.169 185.369 291 184.537C291.808 183.729 292.616 182.921 293.449 182.088C306.546 168.989 319.659 155.906 332.778 142.828C346.24 129.409 359.691 115.979 373.13 102.538C380.679 94.9877 388.233 87.4426 395.798 79.9094C402.239 73.4958 408.669 67.0721 415.086 60.6347C418.362 57.3493 421.642 54.0689 424.936 50.8014C427.949 47.8113 430.949 44.8076 433.938 41.7926C435.022 40.7031 436.112 39.6188 437.208 38.54C438.695 37.0743 440.162 35.5913 441.626 34.1026C442.446 33.2825 443.267 32.4625 444.112 31.6176C446.439 28.3534 446.852 25.992 446.97 22.0117C444.642 18.6967 443.08 17.3078 439.157 16.2617Z" fill="#2E67F8"/>
<path d="M71.9697 382.012C68.3109 383.551 65.9868 385.753 63.2012 388.553C62.7422 389.012 62.2832 389.471 61.8103 389.943C60.3013 391.454 58.7996 392.971 57.2979 394.488C56.2503 395.54 55.2022 396.59 54.1537 397.641C51.4006 400.402 48.6535 403.168 45.9077 405.936C43.1026 408.762 40.2918 411.582 37.4814 414.402C31.972 419.933 26.4688 425.47 20.9697 431.012C22.5751 434.422 24.3749 436.63 27.0947 439.262C27.8192 439.968 28.5436 440.675 29.29 441.402C29.8443 441.933 30.3986 442.465 30.9697 443.012C37.0939 437.947 42.6769 432.433 48.2783 426.801C49.2546 425.823 50.2311 424.845 51.2078 423.867C53.7565 421.315 56.3021 418.759 58.8471 416.203C61.4532 413.587 64.0622 410.973 66.6709 408.359C71.7733 403.246 76.8725 398.13 81.9697 393.012C81.0203 391.895 80.0695 390.779 79.1182 389.664C78.3242 388.732 78.3242 388.732 77.5142 387.781C75.7531 385.764 73.8998 383.868 71.9697 382.012Z" fill="#4D4D4E"/>
<path d="M133.97 306.012C132.301 307.114 132.301 307.114 130.856 308.637C130.331 309.178 129.806 309.72 129.265 310.278C128.734 310.85 128.204 311.422 127.657 312.012C127.107 312.584 126.558 313.157 125.991 313.746C124.639 315.157 123.303 316.583 121.97 318.012C124.392 323.647 129.088 327.539 133.345 331.824C134.208 332.721 135.072 333.618 135.962 334.541C136.797 335.384 137.633 336.226 138.493 337.094C139.637 338.258 139.637 338.258 140.803 339.445C142.97 341.012 142.97 341.012 144.924 341.059C147.864 339.554 149.843 337.51 152.173 335.172C152.656 334.69 153.138 334.208 153.635 333.711C154.651 332.693 155.663 331.672 156.671 330.647C158.219 329.075 159.781 327.516 161.345 325.959C168.97 318.291 168.97 318.291 168.97 316.012C164.792 314.578 160.611 313.154 156.427 311.74C155.005 311.257 153.584 310.772 152.164 310.284C150.119 309.582 148.07 308.89 146.021 308.199C144.79 307.781 143.559 307.362 142.291 306.93C139.254 306.091 137.079 305.597 133.97 306.012Z" fill="#4B4B4C"/>
<path d="M94.9697 359.012C91.5177 360.489 89.3201 362.45 86.7197 365.137C86.0133 365.861 85.3069 366.586 84.5791 367.332C83.7825 368.163 83.7825 368.163 82.9697 369.012C84.4469 372.464 86.4077 374.661 89.0947 377.262C89.8192 377.968 90.5436 378.675 91.29 379.402C91.8443 379.933 92.3986 380.465 92.9697 381.012C93.417 380.625 93.8643 380.238 94.3252 379.84C97.8218 376.828 101.344 373.869 104.97 371.012C103.493 367.56 101.532 365.362 98.8447 362.762C98.1203 362.055 97.3958 361.349 96.6494 360.621C96.0951 360.09 95.5408 359.559 94.9697 359.012Z" fill="#7C7C7C"/>
<path d="M116.97 336.012C112.444 339.69 108.575 343.423 104.97 348.012C108.27 351.312 111.57 354.612 114.97 358.012C118.637 356.178 120.438 354.761 123.22 351.887C123.926 351.162 124.633 350.438 125.36 349.691C125.891 349.137 126.423 348.583 126.97 348.012C125.493 344.56 123.532 342.362 120.845 339.762C120.12 339.055 119.396 338.349 118.649 337.621C118.095 337.09 117.541 336.559 116.97 336.012Z" fill="#7D7D7D"/>
</svg>
